<svg id="Layer_1" enable-background="new 0 0 512 512" height="512" viewBox="0 0 512 512" width="512" xmlns="http://www.w3.org/2000/svg"><path d="m225.163 64.565h.01z"/><g><path d="m505.168 405.042-205.405-348.124c-9.022-15.295-25.792-24.797-43.763-24.797s-34.739 9.502-43.762 24.796l-205.405 348.122c-9.114 15.439-9.111 34.624.012 50.07 9.031 15.278 25.794 24.77 43.748 24.77h410.813c17.955 0 34.718-9.492 43.751-24.774 9.12-15.442 9.124-34.626.011-50.063z" fill="#ffdc3c"/><path d="m505.157 455.105c9.12-15.442 9.124-34.626.011-50.063l-205.405-348.124c-9.022-15.295-25.792-24.797-43.763-24.797v447.759h205.407c17.954-.001 34.717-9.492 43.75-24.775z" fill="#ffb428"/><path d="m479.326 439.85c-3.655 6.183-10.523 10.03-17.919 10.03h-410.814c-7.396 0-14.264-3.845-17.923-10.035-3.56-6.027-3.562-13.524-.003-19.555l205.408-348.128c3.654-6.194 10.522-10.041 17.924-10.041 7.403 0 14.271 3.847 17.924 10.04l205.407 348.127c3.563 6.033 3.56 13.527-.004 19.562z" fill="#ffff82"/><path d="m479.326 439.85c3.564-6.035 3.567-13.528.005-19.563l-205.407-348.127c-3.653-6.192-10.521-10.04-17.924-10.04v387.759h205.407c7.396 0 14.264-3.846 17.919-10.029z" fill="#ffdc3c"/><path d="m342.482 394.942-49.93-22.468 49.93-22.468c7.555-3.399 10.923-12.28 7.523-19.834-3.398-7.554-12.278-10.924-19.834-7.523l-74.171 33.376-74.172-33.377c-7.555-3.402-16.435-.032-19.834 7.523-3.4 7.554-.031 16.435 7.523 19.834l49.93 22.468-49.93 22.468c-7.555 3.399-10.923 12.28-7.523 19.834 3.385 7.523 12.25 10.938 19.834 7.523l74.172-33.376 74.172 33.377c7.588 3.416 16.451-.005 19.834-7.523 3.399-7.554.031-16.435-7.524-19.834z" fill="#004b69"/><path d="m288.131 311.164h-64.262c-8.284 0-15-6.716-15-15v-22.228c-10.281-11.482-16.065-26.451-16.065-42.034 0-34.846 28.35-63.196 63.196-63.196 34.847 0 63.196 28.35 63.196 63.196 0 15.583-5.784 30.551-16.065 42.034v22.228c0 8.284-6.716 15-15 15z" fill="#004b69"/><g fill="#00283c"><path d="m288.131 311.164c8.284 0 15-6.716 15-15v-22.228c10.281-11.483 16.065-26.451 16.065-42.034 0-34.846-28.35-63.196-63.196-63.196v142.458z"/><path d="m342.482 394.942-49.93-22.468 49.93-22.468c7.555-3.399 10.923-12.28 7.523-19.834-3.398-7.554-12.278-10.924-19.834-7.523l-74.171 33.376v32.897l74.172 33.377c7.588 3.416 16.451-.005 19.834-7.523 3.399-7.554.031-16.435-7.524-19.834z"/></g></g></svg>