<svg id="Capa_1" enable-background="new 0 0 512 512" height="512" viewBox="0 0 512 512" width="512" xmlns="http://www.w3.org/2000/svg"><path d="m192.656 362.638-75.937 10.049-64.215-10.049c-2.771 0-5.017-2.246-5.017-5.017 0-29.092 23.584-52.675 52.675-52.675h92.494z" fill="#e5554e"/><path d="m98.507 320.379c-9.528 9.528-15.426 22.697-15.426 37.238 0 2.776 2.247 5.023 5.013 5.023h-35.591c-2.766 0-5.013-2.247-5.013-5.023 0-14.541 5.898-27.71 15.426-37.238 9.538-9.538 22.697-15.436 37.248-15.436h35.591c-14.552 0-27.71 5.897-37.248 15.436z" fill="#dd3c3c"/><path d="m148.76 420.33h-140.153c-2.771 0-5.017-2.246-5.017-5.017 0-29.092 23.584-52.675 52.675-52.675h92.494v57.692z" fill="#fed22b"/><path d="m54.608 378.067c-9.528 9.528-15.426 22.707-15.426 37.248 0 2.766 2.247 5.013 5.013 5.013h-35.591c-2.766 0-5.013-2.247-5.013-5.013 0-14.541 5.898-27.72 15.426-37.248s22.707-15.426 37.248-15.426h35.591c-14.541-.001-27.72 5.897-37.248 15.426z" fill="#fdc202"/><path d="m383.316 496.747h-14.177v-121.518c0-4.212-3.415-7.627-7.627-7.627s-7.627 3.415-7.627 7.627v121.517h-14.177c-4.212 0-7.627 3.415-7.627 7.627s3.415 7.627 7.627 7.627h43.607c4.212 0 7.627-3.415 7.627-7.627s-3.414-7.626-7.626-7.626z" fill="#304164"/><path d="m303.597 496.747h-14.177v-97.828c0-4.212-3.415-7.627-7.627-7.627s-7.627 3.415-7.627 7.627v97.828h-14.177c-4.212 0-7.627 3.415-7.627 7.627s3.415 7.627 7.627 7.627h43.607c4.212 0 7.627-3.415 7.627-7.627s-3.414-7.627-7.626-7.627z" fill="#304164"/><path d="m286.799 419.713h-19.925c-13.927 0-25.217-11.29-25.217-25.217v-304.973c-.001-49.442 40.08-89.523 89.522-89.523 49.442 0 89.523 40.081 89.523 89.523v196.287c0 73.953-59.95 133.903-133.903 133.903z" fill="#e5554e"/><path d="m335.704 42.415c-32.708 0-59.224 26.515-59.224 59.224 0 32.708 26.515 59.224 59.224 59.224h60.166v-118.448z" fill="#f6f1f1"/><path d="m288.145 176.785c-.037.009-.074.019-.11.028-5.457 1.407-10.791-2.636-10.791-8.272v-79.015c0-43.35 30.812-79.5 71.731-87.757-5.665-1.143-11.538-1.752-17.54-1.769-49.382-.138-89.782 41.217-89.782 90.599v108.18 195.719c0 5.796 1.952 11.135 5.247 15.386 4.606 5.979 11.837 9.833 19.972 9.833h19.931c3.691 0 7.352-.153 10.962-.437-11.674-2.207-20.521-12.467-20.521-24.782v-4.098c25.158-22.076 41.021-54.464 41.021-90.523v-99.807c0-15.74-14.867-27.2-30.12-23.285z" fill="#dd3c3c"/><path d="m478.896 108.608h-121.181v27.663c0 13.641 11.058 24.699 24.699 24.699h59.829c24.581 0 44.508-19.927 44.508-44.508-.001-4.337-3.517-7.854-7.855-7.854z" fill="#fdc202"/><path d="m499.927 133.608c3.959 2.416 8.962-.782 8.445-5.391-5.422-48.277-46.383-85.802-96.108-85.802h-29.85c-13.641 0-24.699 11.058-24.699 24.699v44.508h71.114c22.93 0 45.416 6.318 64.991 18.26z" fill="#fed22b"/><path d="m329.42 143.513c10.718 10.718 25.524 17.348 41.875 17.348h-35.591c-16.351 0-31.157-6.63-41.875-17.348-10.718-10.708-17.348-25.514-17.348-41.875 0-32.703 26.51-59.223 59.223-59.223h35.591c-32.713 0-59.223 26.52-59.223 59.223 0 16.361 6.63 31.167 17.348 41.875z" fill="#eadfda"/><circle cx="320.03" cy="87.247" fill="#304164" r="15.054"/><path d="m280.64 200.071v99.807c0 66.409-53.826 120.409-120.409 120.409h-37.441v-64.389c0-76.809 54.914-160.434 127.731-179.114 15.252-3.914 30.119 7.546 30.119 23.287z" fill="#c8ea73"/><path d="m271.732 181.391c-65.548 25.249-113.352 102.847-113.352 174.507v64.389h-35.59v-64.389c0-76.805 54.912-160.433 127.731-179.114 7.819-2.002 15.537.031 21.211 4.607z" fill="#9bd069"/><path d="m280.64 248.231v51.647c0 7.454-.681 14.755-1.983 21.832-1.022.15-150.399 22.427-155.522 23.48 1.668-25.778 9.254-51.932 21.385-75.809 1.018-.159 124.856-19.516 136.12-21.15z" fill="#fed22b"/><path d="m278.657 321.711c-10.26 56.071-59.376 98.577-118.426 98.577h-37.441v-64.389c0-3.559.122-7.128.346-10.708 5.102-1.049 154.502-23.331 155.521-23.48z" fill="#9dc6fb"/><path d="m183.304 263.322c-13.057 23.795-21.578 50.142-24.11 76.297-19.799 3-34.513 5.257-36.059 5.573 0-.041.01-.091.01-.132.399-5.927 1.078-11.823 2.146-18.121-.01-.01 0-.02 0-.031 1.265-7.451 3.097-15.188 4.983-21.588 0-1.606 8.526-25.925 14.247-35.937.376-.062 17.114-2.675 38.783-6.061z" fill="#fdc202"/><path d="m183.304 263.322c-13.057 23.795-21.578 50.142-24.11 76.297-19.799 3-34.513 5.257-36.059 5.573 0-.041.01-.091.01-.132.346-5.142.906-10.806 2.146-18.121-.01-.01 0-.02 0-.031 1.265-7.451 3.097-15.188 4.983-21.588 0-1.606 8.526-25.925 14.247-35.937.376-.062 17.114-2.675 38.783-6.061z" fill="#fdc202"/><g fill="#84bbf7"><path d="m159.194 339.628c-.539 5.44-.813 10.87-.813 16.27v64.389h-35.591c0-69.648-.11-67.679.346-75.097 1.545-.315 16.249-2.572 36.058-5.562z"/><path d="m159.194 339.628c-.539 5.44-.813 10.87-.813 16.27v64.389h-35.591c0-69.648-.11-67.679.346-75.097 1.545-.315 16.249-2.572 36.058-5.562z"/></g></svg>