<svg id="Capa_1" enable-background="new 0 0 512.001 512.001" height="512" viewBox="0 0 512.001 512.001" width="512" xmlns="http://www.w3.org/2000/svg"><path d="m341.645 39.727c-15.592 29.516-4.304 66.083 25.212 81.675 24.952 13.181 54.943 7.152 73.041-12.86 5.251-5.807 3.577-15.023-3.345-18.68z" fill="#ffaa3e"/><path d="m337.335 85.786c-9.846-31.896 8.029-65.735 39.925-75.58 26.964-8.323 55.317 3.164 69.388 26.186 4.083 6.68.728 15.426-6.753 17.735z" fill="#ffbe6b"/><path d="m373.312 96.412c-46.501 16.268-103.656-36.816-75.76-85.41-22.81 1.473-43.955 13.302-54.574 31.206-10.924 18.418-4.246 39.167-12.835 57.964-22.101 48.37-57.892 94.713-85.97 140.65-25.383 41.527-62.748 80.558-49.77 128.69 6.517 24.17 9.283 69.843 39.367 81.725 40.137 15.852 107.659-25.433 136.53-46.605 99.991-73.328 131.269-197.495 103.767-305.376-.26-.94-.51-1.89-.755-2.844z" fill="#00c272"/><path d="m203 151.001c-16.569 25.82-43.362 64.519-58.827 89.821-25.383 41.527-62.748 80.558-49.77 128.69 6.517 24.17 9.283 69.843 39.368 81.725 30.013 11.854 68.338-6.384 99.972-23.123 9.817-17.765 104.591-256.446-30.743-277.113z" fill="#00b472"/><path d="m454.734 435.475c19.061 0 34.513 15.452 34.513 34.513 0 19.061-15.452 34.513-34.513 34.513h-397.467c-19.061 0-34.513-15.452-34.513-34.513 0-19.061 15.452-34.513 34.513-34.513z" fill="#e7886e"/><path d="m359.884 468.199h129.317c-.931-18.229-16.006-32.724-34.467-32.724h-397.467c-19.061 0-34.513 15.452-34.513 34.513 0 19.061 15.452 34.513 34.513 34.513h266.315c0-20.049 16.253-36.302 36.302-36.302z" fill="#dc6646"/><path d="m341.452 106.017c11.781 0 22.731-3.541 31.86-9.605-9.272-36.117-8.449-81.58-66.034-85.405-3.259-.216-6.509-.213-9.727-.005-8.572 10.064-13.757 23.101-13.757 37.357.001 31.844 25.815 57.658 57.658 57.658z" fill="#f9ef80"/><ellipse cx="308.954" cy="78.559" fill="#ffa2ad" rx="25.159" ry="20.128"/><path d="m274.333 474.316c-10.608 0-19.287-8.679-19.287-19.287v-39.107c0-10.608 8.679-19.287 19.287-19.287 10.608 0 19.287 8.679 19.287 19.287v39.107c0 10.608-8.679 19.287-19.287 19.287z" fill="#ffbe6b"/><path d="m235.758 474.316c-10.608 0-19.287-8.679-19.287-19.287v-39.107c0-10.608 8.679-19.287 19.287-19.287 10.608 0 19.287 8.679 19.287 19.287v39.107c0 10.608-8.679 19.287-19.287 19.287z" fill="#ffaa3e"/><path d="m279.521 157.988c23.595 69.669-6.958 143.375-65.881 184.307-33.999 23.618-142.678 68.702-162.792 9.196-28.528-84.395 188.841-311.115 228.673-193.503z" fill="#2bcf69"/><path d="m454.734 427.975h-54.926c-4.143 0-7.5 3.358-7.5 7.5s3.357 7.5 7.5 7.5h54.926c14.895 0 27.013 12.118 27.013 27.013s-12.118 27.013-27.013 27.013h-397.467c-14.895 0-27.013-12.118-27.013-27.013s12.118-27.013 27.013-27.013h151.703v12.054c0 14.771 12.017 26.787 26.788 26.787 7.57 0 14.411-3.161 19.287-8.227 4.876 5.065 11.718 8.227 19.287 8.227 14.771 0 26.787-12.017 26.787-26.787v-12.054h67.725c4.143 0 7.5-3.358 7.5-7.5s-3.357-7.5-7.5-7.5h-67.724v-12.053c0-7.689-3.261-14.627-8.467-19.517 40.896-35.379 70.573-81.692 86.115-134.575 11.972-40.738 15.26-83.736 9.843-126.207 21.203 2.078 42.571-6.259 56.851-22.05 8.386-9.272 5.631-24.512-5.405-30.342l-25.454-13.447 27.507-8.491c11.923-3.681 17.462-18.142 10.94-28.813-16.204-26.508-48.277-38.616-78-29.441-9.687 2.99-18.511 8.074-25.897 14.854-14.858-12.042-33.64-14.375-52.085-14.375-25.566 1.651-48.763 15.01-60.539 34.864-10.854 18.301-4.661 39.971-13.205 58.673-3.756 8.219-8.035 16.647-13.026 25.672-37.414 13.398-83.167 51.443-119.942 99.872-18.008 23.714-31.965 47.688-40.361 69.329-9.644 24.854-11.746 45.702-6.249 61.964 7.095 20.988 25.719 32.077 47.097 34.132 2.555 12.464 5.649 27.087 11.406 39.95h-44.982c-23.166 0-42.013 18.847-42.013 42.013s18.847 42.013 42.013 42.013h397.467c23.166 0 42.013-18.847 42.013-42.013s-18.847-42.012-42.013-42.012zm-218.976 38.841c-6.5 0-11.788-5.288-11.788-11.787v-39.107c0-6.5 5.288-11.787 11.788-11.787 6.499 0 11.787 5.288 11.787 11.787v39.107c0 6.499-5.288 11.787-11.787 11.787zm50.362-11.787c0 6.5-5.288 11.787-11.787 11.787s-11.787-5.288-11.787-11.787v-39.107c0-6.5 5.288-11.787 11.787-11.787s11.787 5.288 11.787 11.787zm146.929-358.534c2.553 1.349 3.251 4.845 1.286 7.018-12.056 13.331-30.504 19.595-48.089 16.649-1.358-7.619-7.727-34.341-8.684-38.943l16.769-5.176zm-53.577-79.123c23.16-7.151 48.153 2.28 60.777 22.931 1.528 2.499.194 5.806-2.565 6.658l-63.244 19.522c-2.998-13.213-6.993-26.549-15.01-37.664 5.724-5.217 12.551-9.134 20.042-11.447zm-321.518 331.717c-8.516-25.192 8.477-70.184 44.345-117.418 35.14-46.274 80.16-83.725 114.696-95.41 24.871-8.416 46.579-1.982 55.424 24.132 22.206 65.573-7.485 137.138-63.058 175.741-27.044 18.786-93.443 46.37-129.509 34.467-11.079-3.656-18.242-10.693-21.898-21.512zm48.258 39.206c38.428-1.975 80.184-17.942 111.707-39.841 61.021-42.39 93.051-120.992 68.706-192.872-6.008-17.74-16.103-29.489-30.002-34.92-7.918-3.093-16.87-4.014-26.739-2.786 2.547-4.968 4.896-9.807 7.08-14.587 8.273-18.106 2.261-40.053 12.465-57.255 9.285-15.656 27.91-26.211 48.606-27.548 16.673 0 33.861 2.373 45.935 15.036 11.402 12.258 14.575 29.931 17.869 45.733 3.391 16.265 7.072 32.467 10.516 48.715 6.974 43.51 4.303 87.829-7.98 129.63-15.364 52.279-45.295 97.758-86.647 131.757-8.348-1.062-16.847 1.941-22.683 8.004-4.876-5.065-11.718-8.227-19.287-8.227-14.771 0-26.788 12.017-26.788 26.787v12.053h-89.947c-6.56-11.337-9.976-26.026-12.811-39.679z"/><path d="m326.811 71.606c4.143 0 7.5-3.358 7.5-7.5v-9.019c0-4.142-3.357-7.5-7.5-7.5s-7.5 3.358-7.5 7.5v9.019c0 4.142 3.357 7.5 7.5 7.5z"/></svg>